<svg width="70" height="70" viewBox="0 0 70 70" fill="none" xmlns="http://www.w3.org/2000/svg">
<path d="M37.9912 41.2968L40.7566 40.375L42.2145 44.7495L39.4492 45.6712L37.9912 41.2968Z" fill="black"/>
<path d="M37.9912 41.2968L40.7566 40.375L42.2145 44.7495L39.4492 45.6712L37.9912 41.2968Z" fill="url(#paint0_linear_108_1127)"/>
<path d="M33.5415 62.7085H36.4585V65.625H33.5415V62.7085Z" fill="black"/>
<path d="M33.5415 62.7085H36.4585V65.625H33.5415V62.7085Z" fill="url(#paint1_linear_108_1127)"/>
<path d="M35 43.75C28.5673 43.75 23.3335 36.553 23.3335 27.7085V26.25C23.3335 19.8173 28.5673 14.5835 35 14.5835C41.4327 14.5835 46.6665 19.8173 46.6665 26.25V27.7085C46.6665 36.553 41.4327 43.75 35 43.75ZM35 17.5C30.1742 17.5 26.25 21.4242 26.25 26.25V27.7085C26.25 34.9444 30.1742 40.8335 35 40.8335C39.8257 40.8335 43.75 34.9444 43.75 27.7085V26.25C43.75 21.4242 39.8257 17.5 35 17.5Z" fill="black"/>
<path d="M35 43.75C28.5673 43.75 23.3335 36.553 23.3335 27.7085V26.25C23.3335 19.8173 28.5673 14.5835 35 14.5835C41.4327 14.5835 46.6665 19.8173 46.6665 26.25V27.7085C46.6665 36.553 41.4327 43.75 35 43.75ZM35 17.5C30.1742 17.5 26.25 21.4242 26.25 26.25V27.7085C26.25 34.9444 30.1742 40.8335 35 40.8335C39.8257 40.8335 43.75 34.9444 43.75 27.7085V26.25C43.75 21.4242 39.8257 17.5 35 17.5Z" fill="url(#paint2_linear_108_1127)"/>
<path d="M42.2915 58.3336C42.1078 58.3336 41.9241 58.2999 41.7505 58.23L35 55.5292L28.2506 58.23C27.8383 58.3934 27.3774 58.364 26.994 58.145C26.6089 57.9293 26.3435 57.5501 26.2703 57.1143L24.8124 48.3643C24.7349 47.9002 24.8866 47.4265 25.2188 47.0938L28.1358 44.1773C28.649 43.6625 29.4613 43.6027 30.0418 44.0417L35 47.7603L39.9582 44.0417C40.5371 43.6043 41.351 43.6625 41.8643 44.1773L44.7813 47.0938C45.1151 47.4281 45.2652 47.9002 45.1877 48.3643L43.7297 57.1143C43.6566 57.5501 43.3911 57.9293 43.0061 58.145C42.7861 58.2705 42.5399 58.3336 42.2915 58.3336ZM35 52.5001C35.1838 52.5001 35.3675 52.5337 35.5426 52.6037L41.1513 54.8478L42.1879 48.6239L40.6979 47.1333L35.8748 50.7499C35.3573 51.1409 34.6427 51.1409 34.1252 50.7499L29.3038 47.1349L27.8122 48.6255L28.8488 54.8494L34.4574 52.6053C34.6326 52.5337 34.8163 52.5001 35 52.5001Z" fill="black"/>
<path d="M42.2915 58.3336C42.1078 58.3336 41.9241 58.2999 41.7505 58.23L35 55.5292L28.2506 58.23C27.8383 58.3934 27.3774 58.364 26.994 58.145C26.6089 57.9293 26.3435 57.5501 26.2703 57.1143L24.8124 48.3643C24.7349 47.9002 24.8866 47.4265 25.2188 47.0938L28.1358 44.1773C28.649 43.6625 29.4613 43.6027 30.0418 44.0417L35 47.7603L39.9582 44.0417C40.5371 43.6043 41.351 43.6625 41.8643 44.1773L44.7813 47.0938C45.1151 47.4281 45.2652 47.9002 45.1877 48.3643L43.7297 57.1143C43.6566 57.5501 43.3911 57.9293 43.0061 58.145C42.7861 58.2705 42.5399 58.3336 42.2915 58.3336ZM35 52.5001C35.1838 52.5001 35.3675 52.5337 35.5426 52.6037L41.1513 54.8478L42.1879 48.6239L40.6979 47.1333L35.8748 50.7499C35.3573 51.1409 34.6427 51.1409 34.1252 50.7499L29.3038 47.1349L27.8122 48.6255L28.8488 54.8494L34.4574 52.6053C34.6326 52.5337 34.8163 52.5001 35 52.5001Z" fill="url(#paint3_linear_108_1127)"/>
<path d="M13.125 70.0001H10.2085V61.2501C10.2085 57.031 12.6903 53.2728 16.8479 51.1948L25.5979 46.8198L26.9031 49.4287L18.1531 53.8037C15.0049 55.3786 13.125 58.1611 13.125 61.2501V70.0001Z" fill="black"/>
<path d="M13.125 70.0001H10.2085V61.2501C10.2085 57.031 12.6903 53.2728 16.8479 51.1948L25.5979 46.8198L26.9031 49.4287L18.1531 53.8037C15.0049 55.3786 13.125 58.1611 13.125 61.2501V70.0001Z" fill="url(#paint4_linear_108_1127)"/>
<path d="M59.7912 69.9999H56.8747V61.2499C56.8747 58.1609 54.9949 55.3785 51.8477 53.8052L43.0977 49.4302L44.4029 46.8213L53.1529 51.1963C57.3095 53.2743 59.7912 57.0325 59.7912 61.2499V69.9999Z" fill="black"/>
<path d="M59.7912 69.9999H56.8747V61.2499C56.8747 58.1609 54.9949 55.3785 51.8477 53.8052L43.0977 49.4302L44.4029 46.8213L53.1529 51.1963C57.3095 53.2743 59.7912 57.0325 59.7912 61.2499V69.9999Z" fill="url(#paint5_linear_108_1127)"/>
<path d="M39.375 27.7087H36.4585C34.2576 27.7087 32.2352 26.9242 30.625 25.4715C29.0148 26.9242 26.9923 27.7087 24.7915 27.7087C23.9866 27.7087 23.3335 27.055 23.3335 26.2502C23.3335 25.4454 23.9866 24.7917 24.7915 24.7917C26.635 24.7917 28.296 23.9564 29.473 22.4397C30.0242 21.7278 31.2258 21.7278 31.7769 22.4397C32.954 23.9564 34.6149 24.7917 36.4585 24.7917H39.375C40.1814 24.7917 40.8335 25.4454 40.8335 26.2502C40.8335 27.055 40.1814 27.7087 39.375 27.7087Z" fill="black"/>
<path d="M39.375 27.7087H36.4585C34.2576 27.7087 32.2352 26.9242 30.625 25.4715C29.0148 26.9242 26.9923 27.7087 24.7915 27.7087C23.9866 27.7087 23.3335 27.055 23.3335 26.2502C23.3335 25.4454 23.9866 24.7917 24.7915 24.7917C26.635 24.7917 28.296 23.9564 29.473 22.4397C30.0242 21.7278 31.2258 21.7278 31.7769 22.4397C32.954 23.9564 34.6149 24.7917 36.4585 24.7917H39.375C40.1814 24.7917 40.8335 25.4454 40.8335 26.2502C40.8335 27.055 40.1814 27.7087 39.375 27.7087Z" fill="url(#paint6_linear_108_1127)"/>
<path d="M18.9585 62.7085H21.875V70H18.9585V62.7085Z" fill="black"/>
<path d="M18.9585 62.7085H21.875V70H18.9585V62.7085Z" fill="url(#paint7_linear_108_1127)"/>
<path d="M48.125 62.7085H51.0415V70H48.125V62.7085Z" fill="black"/>
<path d="M48.125 62.7085H51.0415V70H48.125V62.7085Z" fill="url(#paint8_linear_108_1127)"/>
<path d="M59.7915 32.0835C59.4123 32.0835 59.039 31.9345 58.7607 31.6562L53.3545 26.25H51.0415C50.235 26.25 49.5835 25.5968 49.5835 24.7915C49.5835 23.9866 50.235 23.3335 51.0415 23.3335H53.9585C54.3462 23.3335 54.7169 23.4862 54.9892 23.7607L58.3335 27.1045V24.7915C58.3335 23.9866 58.985 23.3335 59.7915 23.3335C60.5979 23.3335 61.25 23.9866 61.25 24.7915V30.625C61.25 31.2141 60.8954 31.7465 60.3501 31.9724C60.1696 32.0466 59.98 32.0835 59.7915 32.0835Z" fill="black"/>
<path d="M59.7915 32.0835C59.4123 32.0835 59.039 31.9345 58.7607 31.6562L53.3545 26.25H51.0415C50.235 26.25 49.5835 25.5968 49.5835 24.7915C49.5835 23.9866 50.235 23.3335 51.0415 23.3335H53.9585C54.3462 23.3335 54.7169 23.4862 54.9892 23.7607L58.3335 27.1045V24.7915C58.3335 23.9866 58.985 23.3335 59.7915 23.3335C60.5979 23.3335 61.25 23.9866 61.25 24.7915V30.625C61.25 31.2141 60.8954 31.7465 60.3501 31.9724C60.1696 32.0466 59.98 32.0835 59.7915 32.0835Z" fill="url(#paint9_linear_108_1127)"/>
<path d="M65.625 26.25C64.8186 26.25 64.1665 25.5968 64.1665 24.7915C64.1665 23.9867 64.8186 23.3335 65.625 23.3335C66.4298 23.3335 67.0835 22.6788 67.0835 21.875V4.375C67.0835 3.57124 66.4298 2.91649 65.625 2.91649H36.4585C35.6547 2.91649 35 3.57124 35 4.375V10.2085C35 11.0133 34.3468 11.6665 33.5415 11.6665C32.7366 11.6665 32.0835 11.0133 32.0835 10.2085V4.375C32.0835 1.96266 34.0462 0 36.4585 0H65.625C68.0373 0 70 1.96266 70 4.375V21.875C70 24.2873 68.0373 26.25 65.625 26.25Z" fill="black"/>
<path d="M65.625 26.25C64.8186 26.25 64.1665 25.5968 64.1665 24.7915C64.1665 23.9867 64.8186 23.3335 65.625 23.3335C66.4298 23.3335 67.0835 22.6788 67.0835 21.875V4.375C67.0835 3.57124 66.4298 2.91649 65.625 2.91649H36.4585C35.6547 2.91649 35 3.57124 35 4.375V10.2085C35 11.0133 34.3468 11.6665 33.5415 11.6665C32.7366 11.6665 32.0835 11.0133 32.0835 10.2085V4.375C32.0835 1.96266 34.0462 0 36.4585 0H65.625C68.0373 0 70 1.96266 70 4.375V21.875C70 24.2873 68.0373 26.25 65.625 26.25Z" fill="url(#paint10_linear_108_1127)"/>
<path d="M43.75 11.6665H46.6665V14.5835H43.75V11.6665Z" fill="black"/>
<path d="M43.75 11.6665H46.6665V14.5835H43.75V11.6665Z" fill="url(#paint11_linear_108_1127)"/>
<path d="M49.5835 11.6665H52.5V14.5835H49.5835V11.6665Z" fill="black"/>
<path d="M49.5835 11.6665H52.5V14.5835H49.5835V11.6665Z" fill="url(#paint12_linear_108_1127)"/>
<path d="M55.4165 11.6665H58.3335V14.5835H55.4165V11.6665Z" fill="black"/>
<path d="M55.4165 11.6665H58.3335V14.5835H55.4165V11.6665Z" fill="url(#paint13_linear_108_1127)"/>
<path d="M10.2085 46.6665C10.02 46.6665 9.8304 46.6318 9.64989 46.5559C9.10568 46.3311 8.75 45.7976 8.75 45.2085V40.8335H4.375C1.96266 40.8335 0 38.8703 0 36.4585V18.9585C0 16.5462 1.96266 14.5835 4.375 14.5835H21.875C22.6798 14.5835 23.3335 15.2366 23.3335 16.0415C23.3335 16.8468 22.6798 17.5 21.875 17.5H4.375C3.57124 17.5 2.91649 18.1547 2.91649 18.9585V36.4585C2.91649 37.2633 3.57124 37.9165 4.375 37.9165H10.2085C11.0133 37.9165 11.6665 38.5686 11.6665 39.375V41.688L15.0108 38.3437C15.2831 38.0697 15.6554 37.9165 16.0415 37.9165H21.875C22.6798 37.9165 23.3335 38.5686 23.3335 39.375C23.3335 40.1814 22.6798 40.8335 21.875 40.8335H16.6455L11.2392 46.2392C10.961 46.518 10.5877 46.6665 10.2085 46.6665Z" fill="black"/>
<path d="M10.2085 46.6665C10.02 46.6665 9.8304 46.6318 9.64989 46.5559C9.10568 46.3311 8.75 45.7976 8.75 45.2085V40.8335H4.375C1.96266 40.8335 0 38.8703 0 36.4585V18.9585C0 16.5462 1.96266 14.5835 4.375 14.5835H21.875C22.6798 14.5835 23.3335 15.2366 23.3335 16.0415C23.3335 16.8468 22.6798 17.5 21.875 17.5H4.375C3.57124 17.5 2.91649 18.1547 2.91649 18.9585V36.4585C2.91649 37.2633 3.57124 37.9165 4.375 37.9165H10.2085C11.0133 37.9165 11.6665 38.5686 11.6665 39.375V41.688L15.0108 38.3437C15.2831 38.0697 15.6554 37.9165 16.0415 37.9165H21.875C22.6798 37.9165 23.3335 38.5686 23.3335 39.375C23.3335 40.1814 22.6798 40.8335 21.875 40.8335H16.6455L11.2392 46.2392C10.961 46.518 10.5877 46.6665 10.2085 46.6665Z" fill="url(#paint14_linear_108_1127)"/>
<path d="M5.8335 20.4165H20.4165V23.3335H5.8335V20.4165Z" fill="black"/>
<path d="M5.8335 20.4165H20.4165V23.3335H5.8335V20.4165Z" fill="url(#paint15_linear_108_1127)"/>
<path d="M5.8335 26.25H20.4165V29.1665H5.8335V26.25Z" fill="black"/>
<path d="M5.8335 26.25H20.4165V29.1665H5.8335V26.25Z" fill="url(#paint16_linear_108_1127)"/>
<path d="M5.8335 32.0835H8.74998V35H5.8335V32.0835Z" fill="black"/>
<path d="M5.8335 32.0835H8.74998V35H5.8335V32.0835Z" fill="url(#paint17_linear_108_1127)"/>
<path d="M11.6665 32.0835H14.5835V35H11.6665V32.0835Z" fill="black"/>
<path d="M11.6665 32.0835H14.5835V35H11.6665V32.0835Z" fill="url(#paint18_linear_108_1127)"/>
<defs>
<linearGradient id="paint0_linear_108_1127" x1="40.1029" y1="40.375" x2="40.1029" y2="45.6712" gradientUnits="userSpaceOnUse">
<stop stop-color="#F39B14"/>
<stop offset="1" stop-color="#F36414"/>
</linearGradient>
<linearGradient id="paint1_linear_108_1127" x1="35" y1="62.7085" x2="35" y2="65.625" gradientUnits="userSpaceOnUse">
<stop stop-color="#F39B14"/>
<stop offset="1" stop-color="#F36414"/>
</linearGradient>
<linearGradient id="paint2_linear_108_1127" x1="35" y1="14.5835" x2="35" y2="43.75" gradientUnits="userSpaceOnUse">
<stop stop-color="#F39B14"/>
<stop offset="1" stop-color="#F36414"/>
</linearGradient>
<linearGradient id="paint3_linear_108_1127" x1="35.0001" y1="43.748" x2="35.0001" y2="58.3341" gradientUnits="userSpaceOnUse">
<stop stop-color="#F39B14"/>
<stop offset="1" stop-color="#F36414"/>
</linearGradient>
<linearGradient id="paint4_linear_108_1127" x1="18.5558" y1="46.8198" x2="18.5558" y2="70.0001" gradientUnits="userSpaceOnUse">
<stop stop-color="#F39B14"/>
<stop offset="1" stop-color="#F36414"/>
</linearGradient>
<linearGradient id="paint5_linear_108_1127" x1="51.4444" y1="46.8213" x2="51.4444" y2="69.9999" gradientUnits="userSpaceOnUse">
<stop stop-color="#F39B14"/>
<stop offset="1" stop-color="#F36414"/>
</linearGradient>
<linearGradient id="paint6_linear_108_1127" x1="32.0835" y1="21.9058" x2="32.0835" y2="27.7087" gradientUnits="userSpaceOnUse">
<stop stop-color="#F39B14"/>
<stop offset="1" stop-color="#F36414"/>
</linearGradient>
<linearGradient id="paint7_linear_108_1127" x1="20.4167" y1="62.7085" x2="20.4167" y2="70" gradientUnits="userSpaceOnUse">
<stop stop-color="#F39B14"/>
<stop offset="1" stop-color="#F36414"/>
</linearGradient>
<linearGradient id="paint8_linear_108_1127" x1="49.5832" y1="62.7085" x2="49.5832" y2="70" gradientUnits="userSpaceOnUse">
<stop stop-color="#F39B14"/>
<stop offset="1" stop-color="#F36414"/>
</linearGradient>
<linearGradient id="paint9_linear_108_1127" x1="55.4167" y1="23.3335" x2="55.4167" y2="32.0835" gradientUnits="userSpaceOnUse">
<stop stop-color="#F39B14"/>
<stop offset="1" stop-color="#F36414"/>
</linearGradient>
<linearGradient id="paint10_linear_108_1127" x1="51.0417" y1="0" x2="51.0417" y2="26.25" gradientUnits="userSpaceOnUse">
<stop stop-color="#F39B14"/>
<stop offset="1" stop-color="#F36414"/>
</linearGradient>
<linearGradient id="paint11_linear_108_1127" x1="45.2082" y1="11.6665" x2="45.2082" y2="14.5835" gradientUnits="userSpaceOnUse">
<stop stop-color="#F39B14"/>
<stop offset="1" stop-color="#F36414"/>
</linearGradient>
<linearGradient id="paint12_linear_108_1127" x1="51.0417" y1="11.6665" x2="51.0417" y2="14.5835" gradientUnits="userSpaceOnUse">
<stop stop-color="#F39B14"/>
<stop offset="1" stop-color="#F36414"/>
</linearGradient>
<linearGradient id="paint13_linear_108_1127" x1="56.875" y1="11.6665" x2="56.875" y2="14.5835" gradientUnits="userSpaceOnUse">
<stop stop-color="#F39B14"/>
<stop offset="1" stop-color="#F36414"/>
</linearGradient>
<linearGradient id="paint14_linear_108_1127" x1="11.6668" y1="14.5835" x2="11.6668" y2="46.6665" gradientUnits="userSpaceOnUse">
<stop stop-color="#F39B14"/>
<stop offset="1" stop-color="#F36414"/>
</linearGradient>
<linearGradient id="paint15_linear_108_1127" x1="13.125" y1="20.4165" x2="13.125" y2="23.3335" gradientUnits="userSpaceOnUse">
<stop stop-color="#F39B14"/>
<stop offset="1" stop-color="#F36414"/>
</linearGradient>
<linearGradient id="paint16_linear_108_1127" x1="13.125" y1="26.25" x2="13.125" y2="29.1665" gradientUnits="userSpaceOnUse">
<stop stop-color="#F39B14"/>
<stop offset="1" stop-color="#F36414"/>
</linearGradient>
<linearGradient id="paint17_linear_108_1127" x1="7.29174" y1="32.0835" x2="7.29174" y2="35" gradientUnits="userSpaceOnUse">
<stop stop-color="#F39B14"/>
<stop offset="1" stop-color="#F36414"/>
</linearGradient>
<linearGradient id="paint18_linear_108_1127" x1="13.125" y1="32.0835" x2="13.125" y2="35" gradientUnits="userSpaceOnUse">
<stop stop-color="#F39B14"/>
<stop offset="1" stop-color="#F36414"/>
</linearGradient>
</defs>
</svg>
