<svg xmlns="http://www.w3.org/2000/svg" viewBox="0 0 697.326 72.441">
    <path d="M0 .844h21.586l64.298 49.677V.844h20.944v70.857H85.334L21.036 22.368l.184 49.333H0V.844zM233.058.929h21.86l31.097 57.084L317.02.929h21.951l-40.975 70.773h-24.604L233.058.929zM355.235.844h85.02v14.808h-63.436V28.74h52.564v13.344h-52.564v15.24h63.762v14.377h-85.346V.844zM131.633.844h85.02v14.808h-63.435V28.74h52.563v13.344h-52.563v15.24h63.762v14.377h-85.347V.844zM590.498.844h21.586l64.298 49.677V.844h20.944v70.857h-21.494l-64.298-49.333.184 49.333h-21.22V.844zM564.563 18.9a34.2 34.2 0 00-13.208-13.546c-5.913-3.5-13.136-5.042-21.679-5.247-2.489-.06-4.983-.123-7.475-.1a51.939 51.939 0 00-8.1.493 21.376 21.376 0 00-9.82 4.2c-1.152.865-2.237 1.819-3.34 2.75a25.892 25.892 0 01-3.265 2.44 12.923 12.923 0 01-3.433 1.46c-2.921.755-5.856.564-8.981.6-2.682.031-6.9 0-6.9 0-11.06 0-15.794 10.508-16.693 13.9l-.146.505c-.008.029-.019.061-.027.092a37.621 37.621 0 00-1.34 9.482v.58a37.369 37.369 0 004.317 17.035 34.19 34.19 0 0013.208 13.541c5.913 3.5 13.136 5.043 21.679 5.248 2.489.059 4.983.122 7.475.1a51.818 51.818 0 008.1-.494 21.348 21.348 0 009.82-4.2c1.152-.865 2.237-1.818 3.34-2.75a26.052 26.052 0 013.264-2.44 12.941 12.941 0 013.434-1.459c2.921-.755 5.855-.565 8.981-.6 2.682-.032 6.9 0 6.9 0 11.06 0 15.794-10.508 16.692-13.9l.147-.5c.008-.029.019-.06.027-.092a37.609 37.609 0 001.34-9.482v-.58a37.377 37.377 0 00-4.317-17.036zm-19.228 27.821a18.942 18.942 0 01-7.43 7.487 22.172 22.172 0 01-10.681 2.7s-3.327.148-13.517.148-11.974-.148-11.974-.148a27.452 27.452 0 01-10.6-2.641 18.953 18.953 0 01-7.323-7.369 21.763 21.763 0 01-2.717-10.6v-.073-.292a21.391 21.391 0 012.607-10.214 18.948 18.948 0 017.43-7.487 22.183 22.183 0 0110.681-2.695s3.327-.148 13.516-.148 11.975.148 11.975.148a27.452 27.452 0 0110.6 2.641 18.953 18.953 0 017.323 7.369 21.76 21.76 0 012.717 10.6v.364a21.388 21.388 0 01-2.607 10.21z"/>
</svg>
