<svg width="80" height="58" viewBox="0 0 80 58" fill="none" xmlns="http://www.w3.org/2000/svg">
<path d="M18.6665 41.6665C14.2545 41.6665 10.6665 45.2545 10.6665 49.6665C10.6665 54.0785 14.2545 57.6665 18.6665 57.6665C23.0785 57.6665 26.6665 54.0785 26.6665 49.6665C26.6665 45.2545 23.0784 41.6665 18.6665 41.6665ZM18.6665 54.9998C15.7251 54.9998 13.3332 52.6078 13.3332 49.6665C13.3332 46.7251 15.7253 44.3332 18.6665 44.3332C21.6078 44.3332 23.9998 46.7253 23.9998 49.6665C23.9998 52.6078 21.6078 54.9998 18.6665 54.9998Z" fill="black"/>
<path d="M18.6665 41.6665C14.2545 41.6665 10.6665 45.2545 10.6665 49.6665C10.6665 54.0785 14.2545 57.6665 18.6665 57.6665C23.0785 57.6665 26.6665 54.0785 26.6665 49.6665C26.6665 45.2545 23.0784 41.6665 18.6665 41.6665ZM18.6665 54.9998C15.7251 54.9998 13.3332 52.6078 13.3332 49.6665C13.3332 46.7251 15.7253 44.3332 18.6665 44.3332C21.6078 44.3332 23.9998 46.7253 23.9998 49.6665C23.9998 52.6078 21.6078 54.9998 18.6665 54.9998Z" fill="url(#paint0_linear_108_1086)"/>
<path d="M64 41.6665C59.588 41.6665 56 45.2545 56 49.6665C56 54.0785 59.588 57.6665 64 57.6665C68.412 57.6665 72 54.0785 72 49.6665C72 45.2545 68.412 41.6665 64 41.6665ZM64 54.9998C61.0586 54.9998 58.6667 52.6078 58.6667 49.6665C58.6667 46.7251 61.0588 44.3332 64 44.3332C66.9414 44.3332 69.3333 46.7253 69.3333 49.6665C69.3333 52.6078 66.9414 54.9998 64 54.9998Z" fill="black"/>
<path d="M64 41.6665C59.588 41.6665 56 45.2545 56 49.6665C56 54.0785 59.588 57.6665 64 57.6665C68.412 57.6665 72 54.0785 72 49.6665C72 45.2545 68.412 41.6665 64 41.6665ZM64 54.9998C61.0586 54.9998 58.6667 52.6078 58.6667 49.6665C58.6667 46.7251 61.0588 44.3332 64 44.3332C66.9414 44.3332 69.3333 46.7253 69.3333 49.6665C69.3333 52.6078 66.9414 54.9998 64 54.9998Z" fill="url(#paint1_linear_108_1086)"/>
<path d="M79.7878 34.2783L67.7878 15.6115C67.5424 15.2301 67.1198 14.9995 66.6663 14.9995H51.9998C51.2624 14.9995 50.6665 15.5969 50.6665 16.3328V49.6661C50.6665 50.4034 51.2624 50.9994 51.9998 50.9994H57.3331V48.3326H53.3331V17.6662H65.9384L77.3331 35.3915V48.333H70.6663V50.9995H78.6663C79.4037 50.9995 79.9996 50.4036 79.9996 49.6662V34.9995C79.9998 34.7448 79.9265 34.4928 79.7878 34.2783Z" fill="black"/>
<path d="M79.7878 34.2783L67.7878 15.6115C67.5424 15.2301 67.1198 14.9995 66.6663 14.9995H51.9998C51.2624 14.9995 50.6665 15.5969 50.6665 16.3328V49.6661C50.6665 50.4034 51.2624 50.9994 51.9998 50.9994H57.3331V48.3326H53.3331V17.6662H65.9384L77.3331 35.3915V48.333H70.6663V50.9995H78.6663C79.4037 50.9995 79.9996 50.4036 79.9996 49.6662V34.9995C79.9998 34.7448 79.9265 34.4928 79.7878 34.2783Z" fill="url(#paint2_linear_108_1086)"/>
<path d="M58.6671 32.333V22.9997H69.3338V20.333H57.3338C56.5964 20.333 56.0005 20.9304 56.0005 21.6663V33.6663C56.0005 34.4036 56.5964 34.9996 57.3338 34.9996H77.3338V32.3329H58.6671V32.333Z" fill="black"/>
<path d="M58.6671 32.333V22.9997H69.3338V20.333H57.3338C56.5964 20.333 56.0005 20.9304 56.0005 21.6663V33.6663C56.0005 34.4036 56.5964 34.9996 57.3338 34.9996H77.3338V32.3329H58.6671V32.333Z" fill="url(#paint3_linear_108_1086)"/>
<path d="M52 5.6665H1.33328C0.597344 5.6665 0 6.26385 0 6.99978V49.6665C0 50.4038 0.597344 50.9998 1.33328 50.9998H12V48.3331H2.66672V8.33307H50.6667V48.3331H25.3333V50.9998H52C52.7373 50.9998 53.3333 50.4038 53.3333 49.6665V6.99978C53.3333 6.26385 52.7373 5.6665 52 5.6665Z" fill="black"/>
<path d="M52 5.6665H1.33328C0.597344 5.6665 0 6.26385 0 6.99978V49.6665C0 50.4038 0.597344 50.9998 1.33328 50.9998H12V48.3331H2.66672V8.33307H50.6667V48.3331H25.3333V50.9998H52C52.7373 50.9998 53.3333 50.4038 53.3333 49.6665V6.99978C53.3333 6.26385 52.7373 5.6665 52 5.6665Z" fill="url(#paint4_linear_108_1086)"/>
<path d="M9.33301 43H1.33301V45.6667H9.33301V43Z" fill="black"/>
<path d="M9.33301 43H1.33301V45.6667H9.33301V43Z" fill="url(#paint5_linear_108_1086)"/>
<path d="M50.6667 43H28V45.6667H50.6667V43Z" fill="black"/>
<path d="M50.6667 43H28V45.6667H50.6667V43Z" fill="url(#paint6_linear_108_1086)"/>
<path d="M78.6668 43H73.3335V45.6667H78.6668V43Z" fill="black"/>
<path d="M78.6668 43H73.3335V45.6667H78.6668V43Z" fill="url(#paint7_linear_108_1086)"/>
<path d="M52.0002 10.9995H5.3335V13.6662H52.0002V10.9995Z" fill="black"/>
<path d="M52.0002 10.9995H5.3335V13.6662H52.0002V10.9995Z" fill="url(#paint8_linear_108_1086)"/>
<path d="M19.9997 48.333H17.333V50.9997H19.9997V48.333Z" fill="black"/>
<path d="M19.9997 48.333H17.333V50.9997H19.9997V48.333Z" fill="url(#paint9_linear_108_1086)"/>
<path d="M65.3337 48.333H62.667V50.9997H65.3337V48.333Z" fill="black"/>
<path d="M65.3337 48.333H62.667V50.9997H65.3337V48.333Z" fill="url(#paint10_linear_108_1086)"/>
<path d="M24.0002 0.333008H5.3335V2.99973H24.0002V0.333008Z" fill="black"/>
<path d="M24.0002 0.333008H5.3335V2.99973H24.0002V0.333008Z" fill="url(#paint11_linear_108_1086)"/>
<path d="M2.66672 0.333008H0V2.99973H2.66672V0.333008Z" fill="black"/>
<path d="M2.66672 0.333008H0V2.99973H2.66672V0.333008Z" fill="url(#paint12_linear_108_1086)"/>
<defs>
<linearGradient id="paint0_linear_108_1086" x1="18.6665" y1="41.6665" x2="18.6665" y2="57.6665" gradientUnits="userSpaceOnUse">
<stop stop-color="#F39B14"/>
<stop offset="1" stop-color="#F36414"/>
</linearGradient>
<linearGradient id="paint1_linear_108_1086" x1="64" y1="41.6665" x2="64" y2="57.6665" gradientUnits="userSpaceOnUse">
<stop stop-color="#F39B14"/>
<stop offset="1" stop-color="#F36414"/>
</linearGradient>
<linearGradient id="paint2_linear_108_1086" x1="65.3331" y1="14.9995" x2="65.3331" y2="50.9995" gradientUnits="userSpaceOnUse">
<stop stop-color="#F39B14"/>
<stop offset="1" stop-color="#F36414"/>
</linearGradient>
<linearGradient id="paint3_linear_108_1086" x1="66.6671" y1="20.333" x2="66.6671" y2="34.9996" gradientUnits="userSpaceOnUse">
<stop stop-color="#F39B14"/>
<stop offset="1" stop-color="#F36414"/>
</linearGradient>
<linearGradient id="paint4_linear_108_1086" x1="26.6666" y1="5.6665" x2="26.6666" y2="50.9998" gradientUnits="userSpaceOnUse">
<stop stop-color="#F39B14"/>
<stop offset="1" stop-color="#F36414"/>
</linearGradient>
<linearGradient id="paint5_linear_108_1086" x1="5.33301" y1="43" x2="5.33301" y2="45.6667" gradientUnits="userSpaceOnUse">
<stop stop-color="#F39B14"/>
<stop offset="1" stop-color="#F36414"/>
</linearGradient>
<linearGradient id="paint6_linear_108_1086" x1="39.3334" y1="43" x2="39.3334" y2="45.6667" gradientUnits="userSpaceOnUse">
<stop stop-color="#F39B14"/>
<stop offset="1" stop-color="#F36414"/>
</linearGradient>
<linearGradient id="paint7_linear_108_1086" x1="76.0001" y1="43" x2="76.0001" y2="45.6667" gradientUnits="userSpaceOnUse">
<stop stop-color="#F39B14"/>
<stop offset="1" stop-color="#F36414"/>
</linearGradient>
<linearGradient id="paint8_linear_108_1086" x1="28.6669" y1="10.9995" x2="28.6669" y2="13.6662" gradientUnits="userSpaceOnUse">
<stop stop-color="#F39B14"/>
<stop offset="1" stop-color="#F36414"/>
</linearGradient>
<linearGradient id="paint9_linear_108_1086" x1="18.6664" y1="48.333" x2="18.6664" y2="50.9997" gradientUnits="userSpaceOnUse">
<stop stop-color="#F39B14"/>
<stop offset="1" stop-color="#F36414"/>
</linearGradient>
<linearGradient id="paint10_linear_108_1086" x1="64.0004" y1="48.333" x2="64.0004" y2="50.9997" gradientUnits="userSpaceOnUse">
<stop stop-color="#F39B14"/>
<stop offset="1" stop-color="#F36414"/>
</linearGradient>
<linearGradient id="paint11_linear_108_1086" x1="14.6669" y1="0.333008" x2="14.6669" y2="2.99973" gradientUnits="userSpaceOnUse">
<stop stop-color="#F39B14"/>
<stop offset="1" stop-color="#F36414"/>
</linearGradient>
<linearGradient id="paint12_linear_108_1086" x1="1.33336" y1="0.333008" x2="1.33336" y2="2.99973" gradientUnits="userSpaceOnUse">
<stop stop-color="#F39B14"/>
<stop offset="1" stop-color="#F36414"/>
</linearGradient>
</defs>
</svg>
