<svg width="64" height="80" viewBox="0 0 64 80" fill="none" xmlns="http://www.w3.org/2000/svg">
<path d="M63.3818 70.1513L53.2616 52.6224C54.9401 51.2089 56.1001 49.1986 56.41 46.9206C56.6205 45.3716 57.4172 43.9915 58.6533 43.0347C61.8577 40.5543 63.0238 36.2025 61.4891 32.452C60.8969 31.0052 60.8969 29.4117 61.4891 27.965C63.0238 24.2145 61.8577 19.8629 58.6533 17.3823C57.4172 16.4255 56.6203 15.0454 56.41 13.4964C55.8638 9.48112 52.678 6.29532 48.6627 5.74945C47.1139 5.5388 45.7338 4.74211 44.7771 3.50599C42.2964 0.301437 37.9452 -0.864522 34.1943 0.670243C32.7475 1.26236 31.154 1.26236 29.7073 0.670243C25.9571 -0.864678 21.6052 0.301437 19.1246 3.50599C18.1678 4.74211 16.7877 5.5388 15.2387 5.74945C11.2233 6.29548 8.03764 9.48112 7.49177 13.4966C7.28111 15.0456 6.48443 16.4256 5.2483 17.3825C2.04375 19.863 0.877794 24.2148 2.41256 27.9652C3.00468 29.4118 3.00468 31.0055 2.41256 32.4521C0.877638 36.2025 2.04375 40.5543 5.2483 43.0348C6.48443 43.9917 7.28111 45.3717 7.49177 46.9206C7.80557 49.2286 8.99263 51.2612 10.7068 52.6772L0.618067 70.1513C0.302082 70.6987 0.346776 71.3826 0.731678 71.8839C1.11642 72.3852 1.76512 72.6057 2.37599 72.4421L11.1697 70.0858L13.5158 78.8417C13.6794 79.4522 14.1947 79.904 14.8213 79.9865C14.8898 79.9956 14.9581 80 15.0257 80C15.5786 80 16.0971 79.7062 16.3786 79.2186L27.2649 60.3631C28.0904 60.2742 28.9124 60.0721 29.7072 59.7467C31.154 59.1546 32.7477 59.1546 34.1941 59.7467C35.0228 60.086 35.8811 60.2928 36.742 60.3753L47.6212 79.2186C47.9028 79.7064 48.4211 80 48.974 80C49.0419 80 49.11 79.9956 49.1786 79.9865C49.8052 79.904 50.3205 79.4522 50.4841 78.8417L52.8304 70.0858L61.6241 72.4421C62.2342 72.6057 62.8835 72.3855 63.2682 71.8839C63.653 71.3826 63.6978 70.6987 63.3818 70.1513ZM15.5582 74.3887L13.784 67.7675C13.6766 67.3671 13.4149 67.0258 13.0559 66.8186C12.6969 66.6114 12.2706 66.5553 11.8701 66.6625L5.21111 68.4467L13.4222 54.2247C14.0028 54.4323 14.6105 54.5822 15.2386 54.6677C16.7876 54.8783 18.1676 55.675 19.1245 56.9112C20.3389 58.48 22.0021 59.5591 23.8235 60.0729L15.5582 74.3887ZM28.5233 56.8543C26.0684 57.8591 23.2198 57.0957 21.596 54.9982C20.1342 53.1098 18.0259 51.8924 15.6596 51.5708C13.0312 51.2134 10.9457 49.1281 10.5885 46.4996C10.2667 44.1333 9.04951 42.0251 7.1611 40.5632C5.06343 38.9395 4.30019 36.0908 5.30488 33.6359C6.20954 31.4257 6.20954 28.9914 5.30488 26.7813C4.30019 24.3263 5.06343 21.4776 7.1611 19.8539C9.04951 18.3922 10.2667 16.284 10.5885 13.9176C10.9459 11.2892 13.0312 9.20373 15.6596 8.84633C18.0259 8.52472 20.1342 7.3075 21.596 5.41909C22.7411 3.93965 24.495 3.12405 26.2909 3.12405C27.0415 3.12405 27.7996 3.26673 28.5231 3.56287C30.7334 4.46738 33.1679 4.46738 35.3779 3.56287C37.8326 2.55803 40.6815 3.32143 42.3052 5.41909C43.767 7.3075 45.8751 8.52472 48.2413 8.84633C50.8696 9.20373 52.9551 11.289 53.3125 13.9176C53.6343 16.284 54.8515 18.3922 56.7399 19.8539C58.8376 21.4776 59.6008 24.3262 58.5961 26.7813C57.6916 28.9914 57.6916 31.4257 58.5961 33.6359C59.6008 36.0908 58.8374 38.9395 56.7399 40.5632C54.8515 42.025 53.6343 44.1331 53.3125 46.4994C52.9551 49.1279 50.8696 51.2134 48.2414 51.5707C45.875 51.8923 43.7668 53.1095 42.305 54.9981C40.6812 57.0959 37.8326 57.859 35.3779 56.8541C33.1677 55.9498 30.7336 55.9498 28.5233 56.8543ZM52.1297 66.6625C51.2956 66.4389 50.4393 66.9339 50.2158 67.7675L48.4414 74.3887L40.1621 60.0482C41.9503 59.525 43.5812 58.4558 44.777 56.9112C45.7337 55.6749 47.1137 54.8782 48.6626 54.6677C49.32 54.5783 49.9548 54.4169 50.5597 54.1939L58.7885 68.4467L52.1297 66.6625Z" fill="black"/>
<path d="M63.3818 70.1513L53.2616 52.6224C54.9401 51.2089 56.1001 49.1986 56.41 46.9206C56.6205 45.3716 57.4172 43.9915 58.6533 43.0347C61.8577 40.5543 63.0238 36.2025 61.4891 32.452C60.8969 31.0052 60.8969 29.4117 61.4891 27.965C63.0238 24.2145 61.8577 19.8629 58.6533 17.3823C57.4172 16.4255 56.6203 15.0454 56.41 13.4964C55.8638 9.48112 52.678 6.29532 48.6627 5.74945C47.1139 5.5388 45.7338 4.74211 44.7771 3.50599C42.2964 0.301437 37.9452 -0.864522 34.1943 0.670243C32.7475 1.26236 31.154 1.26236 29.7073 0.670243C25.9571 -0.864678 21.6052 0.301437 19.1246 3.50599C18.1678 4.74211 16.7877 5.5388 15.2387 5.74945C11.2233 6.29548 8.03764 9.48112 7.49177 13.4966C7.28111 15.0456 6.48443 16.4256 5.2483 17.3825C2.04375 19.863 0.877794 24.2148 2.41256 27.9652C3.00468 29.4118 3.00468 31.0055 2.41256 32.4521C0.877638 36.2025 2.04375 40.5543 5.2483 43.0348C6.48443 43.9917 7.28111 45.3717 7.49177 46.9206C7.80557 49.2286 8.99263 51.2612 10.7068 52.6772L0.618067 70.1513C0.302082 70.6987 0.346776 71.3826 0.731678 71.8839C1.11642 72.3852 1.76512 72.6057 2.37599 72.4421L11.1697 70.0858L13.5158 78.8417C13.6794 79.4522 14.1947 79.904 14.8213 79.9865C14.8898 79.9956 14.9581 80 15.0257 80C15.5786 80 16.0971 79.7062 16.3786 79.2186L27.2649 60.3631C28.0904 60.2742 28.9124 60.0721 29.7072 59.7467C31.154 59.1546 32.7477 59.1546 34.1941 59.7467C35.0228 60.086 35.8811 60.2928 36.742 60.3753L47.6212 79.2186C47.9028 79.7064 48.4211 80 48.974 80C49.0419 80 49.11 79.9956 49.1786 79.9865C49.8052 79.904 50.3205 79.4522 50.4841 78.8417L52.8304 70.0858L61.6241 72.4421C62.2342 72.6057 62.8835 72.3855 63.2682 71.8839C63.653 71.3826 63.6978 70.6987 63.3818 70.1513ZM15.5582 74.3887L13.784 67.7675C13.6766 67.3671 13.4149 67.0258 13.0559 66.8186C12.6969 66.6114 12.2706 66.5553 11.8701 66.6625L5.21111 68.4467L13.4222 54.2247C14.0028 54.4323 14.6105 54.5822 15.2386 54.6677C16.7876 54.8783 18.1676 55.675 19.1245 56.9112C20.3389 58.48 22.0021 59.5591 23.8235 60.0729L15.5582 74.3887ZM28.5233 56.8543C26.0684 57.8591 23.2198 57.0957 21.596 54.9982C20.1342 53.1098 18.0259 51.8924 15.6596 51.5708C13.0312 51.2134 10.9457 49.1281 10.5885 46.4996C10.2667 44.1333 9.04951 42.0251 7.1611 40.5632C5.06343 38.9395 4.30019 36.0908 5.30488 33.6359C6.20954 31.4257 6.20954 28.9914 5.30488 26.7813C4.30019 24.3263 5.06343 21.4776 7.1611 19.8539C9.04951 18.3922 10.2667 16.284 10.5885 13.9176C10.9459 11.2892 13.0312 9.20373 15.6596 8.84633C18.0259 8.52472 20.1342 7.3075 21.596 5.41909C22.7411 3.93965 24.495 3.12405 26.2909 3.12405C27.0415 3.12405 27.7996 3.26673 28.5231 3.56287C30.7334 4.46738 33.1679 4.46738 35.3779 3.56287C37.8326 2.55803 40.6815 3.32143 42.3052 5.41909C43.767 7.3075 45.8751 8.52472 48.2413 8.84633C50.8696 9.20373 52.9551 11.289 53.3125 13.9176C53.6343 16.284 54.8515 18.3922 56.7399 19.8539C58.8376 21.4776 59.6008 24.3262 58.5961 26.7813C57.6916 28.9914 57.6916 31.4257 58.5961 33.6359C59.6008 36.0908 58.8374 38.9395 56.7399 40.5632C54.8515 42.025 53.6343 44.1331 53.3125 46.4994C52.9551 49.1279 50.8696 51.2134 48.2414 51.5707C45.875 51.8923 43.7668 53.1095 42.305 54.9981C40.6812 57.0959 37.8326 57.859 35.3779 56.8541C33.1677 55.9498 30.7336 55.9498 28.5233 56.8543ZM52.1297 66.6625C51.2956 66.4389 50.4393 66.9339 50.2158 67.7675L48.4414 74.3887L40.1621 60.0482C41.9503 59.525 43.5812 58.4558 44.777 56.9112C45.7337 55.6749 47.1137 54.8782 48.6626 54.6677C49.32 54.5783 49.9548 54.4169 50.5597 54.1939L58.7885 68.4467L52.1297 66.6625Z" fill="url(#paint0_linear_108_1078)"/>
<path d="M24.8487 24.428L19.9865 29.29C19.6935 29.583 19.5288 29.9806 19.5288 30.395C19.5288 30.8095 19.6935 31.207 19.9865 31.5L29.1056 40.6192C29.3986 40.9123 29.7962 41.077 30.2106 41.077C30.625 41.077 31.0226 40.9123 31.3156 40.6192L44.0129 27.922C44.6231 27.3117 44.6231 26.3222 44.0129 25.712L39.1509 20.8498C38.8577 20.5568 38.4603 20.3921 38.0459 20.3921C37.6314 20.3921 37.2339 20.5568 36.9408 20.8498L30.2108 27.5801L27.059 24.4282C26.766 24.1352 26.3684 23.9704 25.954 23.9704C25.5393 23.9703 25.1417 24.135 24.8487 24.428ZM29.1054 30.8951C29.3984 31.1881 29.796 31.3528 30.2104 31.3528C30.6249 31.3528 31.0224 31.1881 31.3155 30.8951L38.0455 24.1649L40.6977 26.817L30.2104 37.3042L23.3016 30.3952L25.9537 27.7432L29.1054 30.8951Z" fill="black"/>
<path d="M24.8487 24.428L19.9865 29.29C19.6935 29.583 19.5288 29.9806 19.5288 30.395C19.5288 30.8095 19.6935 31.207 19.9865 31.5L29.1056 40.6192C29.3986 40.9123 29.7962 41.077 30.2106 41.077C30.625 41.077 31.0226 40.9123 31.3156 40.6192L44.0129 27.922C44.6231 27.3117 44.6231 26.3222 44.0129 25.712L39.1509 20.8498C38.8577 20.5568 38.4603 20.3921 38.0459 20.3921C37.6314 20.3921 37.2339 20.5568 36.9408 20.8498L30.2108 27.5801L27.059 24.4282C26.766 24.1352 26.3684 23.9704 25.954 23.9704C25.5393 23.9703 25.1417 24.135 24.8487 24.428ZM29.1054 30.8951C29.3984 31.1881 29.796 31.3528 30.2104 31.3528C30.6249 31.3528 31.0224 31.1881 31.3155 30.8951L38.0455 24.1649L40.6977 26.817L30.2104 37.3042L23.3016 30.3952L25.9537 27.7432L29.1054 30.8951Z" fill="url(#paint1_linear_108_1078)"/>
<path d="M52.3151 30.7347C52.3151 26.5834 51.071 22.5909 48.7175 19.1889C46.4192 15.8669 43.2267 13.3267 39.4852 11.843C38.6826 11.525 37.7746 11.9174 37.4564 12.7197C37.1383 13.5221 37.5308 14.4303 38.333 14.7485C44.9282 17.3637 49.1898 23.6387 49.1898 30.7347C49.1898 40.2133 41.4783 47.9248 31.9997 47.9248C22.521 47.9248 14.8096 40.2133 14.8096 30.7347C14.8096 23.6386 19.0711 17.3636 25.6664 14.7483C26.4687 14.4302 26.8612 13.5219 26.5431 12.7196C26.2249 11.9173 25.3165 11.5247 24.5143 11.8429C20.7727 13.3267 17.5801 15.8668 15.2818 19.1887C12.9282 22.5908 11.6841 26.5833 11.6841 30.7345C11.6841 41.9365 20.7977 51.0501 31.9997 51.0501C43.2017 51.0503 52.3151 41.9367 52.3151 30.7347Z" fill="black"/>
<path d="M52.3151 30.7347C52.3151 26.5834 51.071 22.5909 48.7175 19.1889C46.4192 15.8669 43.2267 13.3267 39.4852 11.843C38.6826 11.525 37.7746 11.9174 37.4564 12.7197C37.1383 13.5221 37.5308 14.4303 38.333 14.7485C44.9282 17.3637 49.1898 23.6387 49.1898 30.7347C49.1898 40.2133 41.4783 47.9248 31.9997 47.9248C22.521 47.9248 14.8096 40.2133 14.8096 30.7347C14.8096 23.6386 19.0711 17.3636 25.6664 14.7483C26.4687 14.4302 26.8612 13.5219 26.5431 12.7196C26.2249 11.9173 25.3165 11.5247 24.5143 11.8429C20.7727 13.3267 17.5801 15.8668 15.2818 19.1887C12.9282 22.5908 11.6841 26.5833 11.6841 30.7345C11.6841 41.9365 20.7977 51.0501 31.9997 51.0501C43.2017 51.0503 52.3151 41.9367 52.3151 30.7347Z" fill="url(#paint2_linear_108_1078)"/>
<path d="M31.9997 13.5434C32.4107 13.5434 32.8139 13.3778 33.1044 13.0856C33.3951 12.7949 33.5625 12.3933 33.5625 11.9807C33.5625 11.5697 33.3953 11.1665 33.1044 10.8759C32.8139 10.5852 32.4107 10.418 31.9997 10.418C31.5887 10.418 31.1856 10.5852 30.8949 10.8759C30.6042 11.1665 30.437 11.5697 30.437 11.9807C30.437 12.3933 30.6042 12.7949 30.8949 13.0856C31.1856 13.3778 31.5887 13.5434 31.9997 13.5434Z" fill="black"/>
<path d="M31.9997 13.5434C32.4107 13.5434 32.8139 13.3778 33.1044 13.0856C33.3951 12.7949 33.5625 12.3933 33.5625 11.9807C33.5625 11.5697 33.3953 11.1665 33.1044 10.8759C32.8139 10.5852 32.4107 10.418 31.9997 10.418C31.5887 10.418 31.1856 10.5852 30.8949 10.8759C30.6042 11.1665 30.437 11.5697 30.437 11.9807C30.437 12.3933 30.6042 12.7949 30.8949 13.0856C31.1856 13.3778 31.5887 13.5434 31.9997 13.5434Z" fill="url(#paint3_linear_108_1078)"/>
<defs>
<linearGradient id="paint0_linear_108_1078" x1="31.9999" y1="0" x2="31.9999" y2="80" gradientUnits="userSpaceOnUse">
<stop stop-color="#F39B14"/>
<stop offset="1" stop-color="#F36414"/>
</linearGradient>
<linearGradient id="paint1_linear_108_1078" x1="31.9997" y1="20.3921" x2="31.9997" y2="41.077" gradientUnits="userSpaceOnUse">
<stop stop-color="#F39B14"/>
<stop offset="1" stop-color="#F36414"/>
</linearGradient>
<linearGradient id="paint2_linear_108_1078" x1="31.9996" y1="11.7324" x2="31.9996" y2="51.0501" gradientUnits="userSpaceOnUse">
<stop stop-color="#F39B14"/>
<stop offset="1" stop-color="#F36414"/>
</linearGradient>
<linearGradient id="paint3_linear_108_1078" x1="31.9997" y1="10.418" x2="31.9997" y2="13.5434" gradientUnits="userSpaceOnUse">
<stop stop-color="#F39B14"/>
<stop offset="1" stop-color="#F36414"/>
</linearGradient>
</defs>
</svg>
